<svg width="103" height="30" viewBox="0 0 103 30" fill="none" xmlns="http://www.w3.org/2000/svg">
<path d="M5.08089 2.97559H2.72852V5.45817H5.08089V2.97559Z" fill="black"/>
<path d="M9.78482 2.97594H12.1372V0.624023H9.78482H7.43245H5.08008V2.97594H7.43245H9.78482Z" fill="black"/>
<path d="M14.6204 2.97559H12.2681V5.45817H14.6204V2.97559Z" fill="black"/>
<path d="M16.973 5.45898H14.6206V7.8109H16.973V5.45898Z" fill="black"/>
<path d="M19.3255 2.97559H16.9731V5.45817H19.3255V2.97559Z" fill="black"/>
<path d="M24.1606 0.624023H21.6776H21.4162H19.3252V2.97594H21.4162H21.6776H24.1606H26.513V0.624023H24.1606Z" fill="black"/>
<path d="M28.8656 2.97559H26.5132V5.45817H28.8656V2.97559Z" fill="black"/>
<path d="M28.8657 5.45898V7.8109V10.1628V14.9973H31.3488V10.1628V7.8109V5.45898H28.8657Z" fill="black"/>
<path d="M28.8656 14.9971H26.5132V17.349H28.8656V14.9971Z" fill="black"/>
<path d="M26.5135 17.3486H24.1611V19.7006H26.5135V17.3486Z" fill="black"/>
<path d="M24.1608 19.7002H21.6777V22.0521H24.1608V19.7002Z" fill="black"/>
<path d="M21.6776 22.0527H19.3252V24.4046H21.6776V22.0527Z" fill="black"/>
<path d="M19.3255 24.5352H16.9731V26.8871H19.3255V24.5352Z" fill="black"/>
<path d="M16.973 26.8867H14.6206V29.2386H16.973V26.8867Z" fill="black"/>
<path d="M14.6204 24.5352H12.2681V26.8871H14.6204V24.5352Z" fill="black"/>
<path d="M12.2687 22.0527H9.78564V24.5353H12.2687V22.0527Z" fill="black"/>
<path d="M9.78548 19.7002H7.43311V22.0521H9.78548V19.7002Z" fill="black"/>
<path d="M7.43245 17.3486H5.08008V19.7006H7.43245V17.3486Z" fill="black"/>
<path d="M5.08089 14.9971H2.72852V17.349H5.08089V14.9971Z" fill="black"/>
<path d="M2.72818 12.5147V10.1628V7.8109V5.45898H0.245117V7.8109V10.1628V12.5147V14.8667H2.72818V12.5147Z" fill="black"/>
<path d="M5.08089 5.45898H2.72852V7.8109H5.08089V5.45898Z" fill="white"/>
<path d="M26.5136 5.45817V2.97559H24.1612H21.6782H21.1554H19.3258V5.45817H16.9734V7.81008H14.6211V5.45817H12.2687V2.97559H9.78563H7.43326V5.45817H5.08089V7.81008H2.72852V14.9965H5.08089V17.3484H7.43326V19.7003H9.78563V22.0522H12.2687V24.5348H14.6211V26.8867H16.9734V24.5348H19.3258V22.0522H21.6782V19.7003H24.1612V17.3484H26.5136V14.9965H28.866V5.45817H26.5136Z" fill="#CE0002"/>
<path d="M7.43245 2.97559H5.08008V5.3275H7.43245V2.97559Z" fill="white"/>
<path d="M64.6739 5.45852V2.97594H62.3215V0.624023H59.9692H57.6168H55.2644V2.97594H52.7814V5.45852H50.429V2.97594H47.9459V0.624023H45.5936H43.2412H40.8888V2.97594H43.2412V5.45852H40.8888V7.81044H38.5365V5.45852H40.8888V2.97594H38.5365V5.45852H36.1841V7.81044V10.1624V12.5143V14.8662H38.5365V17.3488H40.8888V14.8662H38.5365V12.5143H40.8888H43.2412H45.5936H47.9459H50.429H52.7814H55.1337H57.6168H59.9692H62.3215H64.6739V14.8662H62.3215V17.3488H64.6739V14.8662H67.157V12.5143V10.1624V7.81044V5.45852H64.6739Z" fill="black"/>
<path d="M62.3211 17.3486H59.9688V19.7006H62.3211V17.3486Z" fill="black"/>
<path d="M59.9691 19.7002H57.6167V22.0521H59.9691V19.7002Z" fill="black"/>
<path d="M57.6169 22.0527H55.1338V24.4046H57.6169V22.0527Z" fill="black"/>
<path d="M55.1336 24.4043H52.7812V26.8869H55.1336V24.4043Z" fill="black"/>
<path d="M52.7816 26.8867H50.4292V29.2386H52.7816V26.8867Z" fill="black"/>
<path d="M50.4289 24.4043H47.9458V26.8869H50.4289V24.4043Z" fill="black"/>
<path d="M47.9456 22.0527H45.5933V24.4046H47.9456V22.0527Z" fill="black"/>
<path d="M45.5936 19.7002H43.2412V22.0521H45.5936V19.7002Z" fill="black"/>
<path d="M43.241 17.3486H40.8887V19.7006H43.241V17.3486Z" fill="black"/>
<path d="M40.889 5.45898H38.5366V7.8109H40.889V5.45898Z" fill="white"/>
<path d="M62.3217 12.5146H59.9693H57.617H55.1339H52.7815H50.4292H47.9461H45.5937H43.2414H40.889H38.5366V14.8666H40.889V17.3491H43.2414V19.7011H45.5937V22.053H47.9461V24.4049H50.4292V26.8875H52.7815V24.4049H55.1339V22.053H57.617V19.7011H59.9693V17.3491H62.3217V14.8666H64.6741V12.5146H62.3217Z" fill="#CE0002"/>
<path d="M43.241 2.97559H40.8887V5.3275H43.241V2.97559Z" fill="white"/>
<path d="M76.6976 3.10645H74.3452V5.45836H76.6976V3.10645Z" fill="black"/>
<path d="M100.483 5.45852V2.97594H98.1301V0.624023H95.7778H93.4254H91.073V2.97594H88.59V5.45852H86.2376V2.97594H83.8852V0.754685H81.4022H81.0101H79.0498H76.6974V3.1066H79.0498V5.45852H76.6974V7.81043H74.345V5.45852H71.9927V7.81043V10.1623V12.5143V14.8662H74.345V17.3488H76.6974V19.7007H79.0498V22.0526H80.618H81.4022H81.5328V24.4045H83.8852V26.8871H86.2376V29.239H88.59V26.8871H86.2376V24.4045H83.8852V22.0526H86.2376H88.59H90.9423V24.4045H88.59V26.8871H90.9423V24.4045H93.4254V22.0526H95.7778V19.7007H98.1301V17.3488H100.483V14.8662H102.966V12.5143V10.1623V7.81043V5.45852H100.483Z" fill="black"/>
<path d="M76.6971 5.45898H74.3447V7.8109H76.6971V5.45898Z" fill="white"/>
<path d="M88.5902 24.4043H86.2378V26.8869H88.5902V24.4043Z" fill="#CE0002"/>
<path d="M86.2371 22.0527H83.8848V24.4046H86.2371V22.0527Z" fill="#CE0002"/>
<path d="M88.5902 22.0527H86.2378V24.4046H88.5902V22.0527Z" fill="#CE0002"/>
<path d="M90.9422 22.0527H88.5898V24.4046H90.9422V22.0527Z" fill="#CE0002"/>
<path d="M79.0496 3.10645H76.6973V5.45836H79.0496V3.10645Z" fill="white"/>
</svg>
