<svg aria-hidden="true" style="position:absolute;width:0;height:0;overflow:hidden" xmlns="http://www.w3.org/2000/svg"><defs><symbol id="icon-Behance" viewBox="0 0 32 32"><path fill="#c4b6b6" style="fill:var(--color1, #c4b6b6)" d="M15.333 11.333v-.667A5.334 5.334 0 0 0 10 5.333H4.667a2 2 0 0 0-2 2v16a2 2 0 0 0 2 2h6a6.002 6.002 0 0 0 5.693-7.897 5.995 5.995 0 0 0-2.215-2.992 4.648 4.648 0 0 0 1.188-3.111zm-10 2V8H10a2.668 2.668 0 0 1 2.667 2.667v.667a2 2 0 0 1-2 2H5.334zm0 2.667h5.333a3.333 3.333 0 1 1 0 6.666H5.333v-6.667zM20 8a1.333 1.333 0 0 1 1.333-1.334H26A1.33 1.33 0 0 1 27.333 8 1.333 1.333 0 0 1 26 9.334h-4.667A1.33 1.33 0 0 1 20 8z"/><path fill="#c4b6b6" style="fill:var(--color1, #c4b6b6)" d="M23.666 10.667c-3.788 0-7 2.909-7 6.667v1.333c0 3.757 3.212 6.667 7 6.667 2.02 0 3.483-.581 4.463-1.213.589-.379 1.052-.84 1.497-1.371a1.336 1.336 0 0 0-.351-1.836 1.332 1.332 0 0 0-1.841.32 2.993 2.993 0 0 1-.747.645c-.575.369-1.541.788-3.02.788-2.471 0-4.333-1.867-4.333-4h10a1.333 1.333 0 0 0 1.333-1.333c0-3.757-3.212-6.667-7-6.667zM27.75 16c-.587-1.521-2.149-2.667-4.084-2.667S20.169 14.478 19.582 16h8.168z"/></symbol><symbol id="icon-bonus" viewBox="0 0 32 32"><path fill="#f7feff" style="fill:var(--color2, #f7feff)" d="M19.753 29.63h-7.901v1.975h7.901V29.63zM23.704 27.655h-3.951v1.975h3.951v-1.975z"/><path fill="#231e2b" style="fill:var(--color3, #231e2b)" d="M19.753 27.655h-7.901v1.975h7.901v-1.975z"/><path fill="#f7feff" style="fill:var(--color2, #f7feff)" d="M11.852 27.655H7.901v1.975h3.951v-1.975zM25.679 25.679h-1.975v1.975h1.975v-1.975z"/><path fill="#231e2b" style="fill:var(--color3, #231e2b)" d="M23.704 25.679h-3.951v1.975h3.951v-1.975zM11.852 25.679H7.901v1.975h3.951v-1.975z"/><path fill="#f7feff" style="fill:var(--color2, #f7feff)" d="M7.901 25.679H5.926v1.975h1.975v-1.975zM27.655 23.704H25.68v1.975h1.975v-1.975z"/><path fill="#231e2b" style="fill:var(--color3, #231e2b)" d="M25.679 23.704h-1.975v1.975h1.975v-1.975z"/><path fill="#f5f38e" style="fill:var(--color4, #f5f38e)" d="M15.803 23.704h-3.951v1.975h3.951v-1.975z"/><path fill="#e2b436" style="fill:var(--color5, #e2b436)" d="M9.877 23.703v-1.975H7.902v-9.877h1.975V9.876h1.975V7.901h7.901V5.926h-3.951V3.951h-3.951v1.975H7.9v1.975H5.925v3.951H3.95v7.901h1.975v3.951H7.9v1.975h3.951v-1.975H9.876z"/><path fill="#231e2b" style="fill:var(--color3, #231e2b)" d="M7.901 23.704H5.926v1.975h1.975v-1.975z"/><path fill="#f7feff" style="fill:var(--color2, #f7feff)" d="M5.926 23.704H3.951v1.975h1.975v-1.975z"/><path fill="#f5f38e" style="fill:var(--color4, #f5f38e)" d="M11.852 21.728H9.877v1.975h1.975v-1.975z"/><path fill="#231e2b" style="fill:var(--color3, #231e2b)" d="M5.926 19.754H3.951v3.951h1.975v-3.951z"/><path fill="#f7feff" style="fill:var(--color2, #f7feff)" d="M29.63 19.754h-1.975v3.951h1.975v-3.951z"/><path fill="#231e2b" style="fill:var(--color3, #231e2b)" d="M27.655 19.754H25.68v3.951h1.975v-3.951z"/><path fill="#c2751d" style="fill:var(--color6, #c2751d)" d="M15.803 19.754h-1.975v1.975h1.975v-1.975z"/><path fill="#f5f38e" style="fill:var(--color4, #f5f38e)" d="M9.877 19.754H7.902v1.975h1.975v-1.975z"/><path fill="#f7feff" style="fill:var(--color2, #f7feff)" d="M3.95 19.754H1.975v3.951H3.95v-3.951z"/><path fill="#c2751d" style="fill:var(--color6, #c2751d)" d="M13.827 17.778h-1.975v1.975h1.975v-1.975z"/><path fill="#231e2b" style="fill:var(--color3, #231e2b)" d="M3.95 11.851H1.975v7.901H3.95v-7.901zM29.63 11.851h-1.975v7.901h1.975v-7.901z"/><path fill="#f7feff" style="fill:var(--color2, #f7feff)" d="M1.975 11.851H0v7.901h1.975v-7.901z"/><path fill="#f5f38e" style="fill:var(--color4, #f5f38e)" d="M19.753 13.827h-1.975v1.975h1.975v-1.975z"/><path fill="#f7feff" style="fill:var(--color2, #f7feff)" d="M31.606 11.851h-1.975v7.901h1.975v-7.901z"/><path fill="#c2751d" style="fill:var(--color6, #c2751d)" d="M23.704 11.851h-1.975v1.975h1.975v-1.975z"/><path fill="#f5f38e" style="fill:var(--color4, #f5f38e)" d="M17.778 11.851h-1.975v1.975h1.975v-1.975z"/><path fill="#e2b436" style="fill:var(--color5, #e2b436)" d="M15.803 11.851h-1.975v1.975h-1.975v3.951h1.975v1.975h3.951v-1.975h1.975v-1.975h-1.975v-1.975h-1.975v-1.975z"/><path fill="#f7feff" style="fill:var(--color2, #f7feff)" d="M29.63 7.901h-1.975v3.951h1.975V7.901z"/><path fill="#e2b436" style="fill:var(--color5, #e2b436)" d="M25.679 9.877h-1.975V7.902h-3.951v1.975h1.975v1.975h1.975v7.901h-1.975v1.975h-1.975v1.975h-3.951v1.975h-3.951v1.975h7.901v-1.975h3.951v-1.975h1.975v-3.951h1.975v-7.901h-1.975V9.876z"/><path fill="#c2751d" style="fill:var(--color6, #c2751d)" d="M21.729 9.877h-1.975v1.975h1.975V9.877z"/><path fill="#cf8934" style="fill:var(--color7, #cf8934)" d="M15.803 9.877V7.902h-3.951v1.975H9.877v1.975H7.902v7.901h1.975v1.975h1.975v1.975h7.901v-1.975h1.975v-1.975h1.975v-5.926h-1.975v-1.975h-1.975V9.877h-3.951zm3.95 3.95v3.951h-1.975v1.975h-1.975v1.975h-1.975v-1.975h-1.975v-5.926h1.975v-1.975h3.951v1.975h1.975z"/><path fill="#231e2b" style="fill:var(--color3, #231e2b)" d="M5.926 7.901H3.951v3.951h1.975V7.901z"/><path fill="#f7feff" style="fill:var(--color2, #f7feff)" d="M3.95 7.901H1.975v3.951H3.95V7.901z"/><path fill="#231e2b" style="fill:var(--color3, #231e2b)" d="M27.655 7.901H25.68v3.951h1.975V7.901z"/><path fill="#f5f38e" style="fill:var(--color4, #f5f38e)" d="M25.679 7.901h-1.975v1.975h1.975V7.901z"/><path fill="#c2751d" style="fill:var(--color6, #c2751d)" d="M19.753 7.901h-3.951v1.975h3.951V7.901z"/><path fill="#f7feff" style="fill:var(--color2, #f7feff)" d="M27.655 5.926H25.68v1.975h1.975V5.926z"/><path fill="#231e2b" style="fill:var(--color3, #231e2b)" d="M25.679 5.926h-1.975v1.975h1.975V5.926z"/><path fill="#f5f38e" style="fill:var(--color4, #f5f38e)" d="M23.704 5.926h-3.951v1.975h3.951V5.926z"/><path fill="#231e2b" style="fill:var(--color3, #231e2b)" d="M7.901 5.926H5.926v1.975h1.975V5.926z"/><path fill="#f7feff" style="fill:var(--color2, #f7feff)" d="M5.926 5.926H3.951v1.975h1.975V5.926zM25.679 3.95h-1.975v1.975h1.975V3.95z"/><path fill="#231e2b" style="fill:var(--color3, #231e2b)" d="M23.704 3.95h-3.951v1.975h3.951V3.95z"/><path fill="#f5f38e" style="fill:var(--color4, #f5f38e)" d="M19.753 3.95h-3.951v1.975h3.951V3.95z"/><path fill="#231e2b" style="fill:var(--color3, #231e2b)" d="M11.852 3.95H7.901v1.975h3.951V3.95z"/><path fill="#f7feff" style="fill:var(--color2, #f7feff)" d="M7.901 3.95H5.926v1.975h1.975V3.95zM23.704 1.976h-3.951v1.975h3.951V1.976z"/><path fill="#231e2b" style="fill:var(--color3, #231e2b)" d="M19.753 1.976h-7.901v1.975h7.901V1.976z"/><path fill="#f7feff" style="fill:var(--color2, #f7feff)" d="M11.852 1.976H7.901v1.975h3.951V1.976zM19.753 0h-7.901v1.975h7.901V0z"/></symbol><symbol id="icon-cup" viewBox="0 0 32 32"><path fill="#f7feff" style="fill:var(--color2, #f7feff)" d="M22 30H10v2h12v-2zM24 26h-2v4h2v-4z"/><path fill="#231e2b" style="fill:var(--color3, #231e2b)" d="M20 28h-8v-2h-2v4h12v-4h-2v2z"/><path fill="#f5f38e" style="fill:var(--color4, #f5f38e)" d="M20 26h-2v2h2v-2z"/><path fill="#e2b436" style="fill:var(--color5, #e2b436)" d="M18 26h-4v2h4v-2z"/><path fill="#f5f38e" style="fill:var(--color4, #f5f38e)" d="M14 26h-2v2h2v-2z"/><path fill="#f7feff" style="fill:var(--color2, #f7feff)" d="M10 26H8v4h2v-4zM12 20h-2v6h2v-6z"/><path fill="#f5f38e" style="fill:var(--color4, #f5f38e)" d="M16 24h-2v2h4v-4h-2v2z"/><path fill="#e2b436" style="fill:var(--color5, #e2b436)" d="M16 22h-2v2h2v-2z"/><path fill="#f7feff" style="fill:var(--color2, #f7feff)" d="M22 20h-2v6h2v-6z"/><path fill="#231e2b" style="fill:var(--color3, #231e2b)" d="M12 26h2v-8h-4v2h2v6z"/><path fill="#f7feff" style="fill:var(--color2, #f7feff)" d="M26 18h-4v2h4v-2z"/><path fill="#231e2b" style="fill:var(--color3, #231e2b)" d="M18 18v8h2v-6h2v-2h-4z"/><path fill="#cf8934" style="fill:var(--color7, #cf8934)" d="M18 18h-4v4h4v-4z"/><path fill="#f7feff" style="fill:var(--color2, #f7feff)" d="M10 18H6v2h4v-2zM28 16h-2v2h2v-2z"/><path fill="#231e2b" style="fill:var(--color3, #231e2b)" d="M26 16h-4v2h4v-2z"/><path fill="#cf8934" style="fill:var(--color7, #cf8934)" d="M22 16h-2v2h2v-2z"/><path fill="#e2b436" style="fill:var(--color5, #e2b436)" d="M18 16v-2h2V6H8v8h2v2h2v2h8v-2h-2z"/><path fill="#cf8934" style="fill:var(--color7, #cf8934)" d="M12 16h-2v2h2v-2z"/><path fill="#231e2b" style="fill:var(--color3, #231e2b)" d="M10 16H6v2h4v-2z"/><path fill="#f7feff" style="fill:var(--color2, #f7feff)" d="M6 16H4v2h2v-2zM30 14h-2v2h2v-2z"/><path fill="#231e2b" style="fill:var(--color3, #231e2b)" d="M28 14h-2v2h2v-2z"/><path fill="#cf8934" style="fill:var(--color7, #cf8934)" d="M26 14h-4v2h4v-2z"/><path fill="#e2b436" style="fill:var(--color5, #e2b436)" d="M22 14h-2v2h2v-2z"/><path fill="#f5f38e" style="fill:var(--color4, #f5f38e)" d="M20 14h-2v2h2v-2z"/><path fill="#cf8934" style="fill:var(--color7, #cf8934)" d="M10 14H6v2h4v-2z"/><path fill="#231e2b" style="fill:var(--color3, #231e2b)" d="M6 14H4v2h2v-2z"/><path fill="#f7feff" style="fill:var(--color2, #f7feff)" d="M4 14H2v2h2v-2z"/><path fill="#cf8934" style="fill:var(--color7, #cf8934)" d="M28 12h-2v2h2v-2z"/><path fill="#231e2b" style="fill:var(--color3, #231e2b)" d="M8 8H6v6h2V8z"/><path fill="#cf8934" style="fill:var(--color7, #cf8934)" d="M6 12H4v2h2v-2z"/><path fill="#231e2b" style="fill:var(--color3, #231e2b)" d="M4 6H2v8h2V6zM30 6h-2v8h2V6zM26 8h-2v6h2V8z"/><path fill="#e2b436" style="fill:var(--color5, #e2b436)" d="M6 8H4v4h2V8z"/><path fill="#f7feff" style="fill:var(--color2, #f7feff)" d="M2 6H0v8h2V6z"/><path fill="#e2b436" style="fill:var(--color5, #e2b436)" d="M28 8h-2v4h2V8z"/><path fill="#f7feff" style="fill:var(--color2, #f7feff)" d="M32 6h-2v8h2V6z"/><path fill="#f5f38e" style="fill:var(--color4, #f5f38e)" d="M28 6h-2v2h2V6z"/><path fill="#cf8934" style="fill:var(--color7, #cf8934)" d="M26 6h-2v2h2V6z"/><path fill="#e2b436" style="fill:var(--color5, #e2b436)" d="M24 6h-2v8h2V6z"/><path fill="#cf8934" style="fill:var(--color7, #cf8934)" d="M8 6H6v2h2V6z"/><path fill="#f5f38e" style="fill:var(--color4, #f5f38e)" d="M6 6H4v2h2V6z"/><path fill="#f7feff" style="fill:var(--color2, #f7feff)" d="M30 4h-2v2h2V4z"/><path fill="#231e2b" style="fill:var(--color3, #231e2b)" d="M28 4h-4v2h4V4z"/><path fill="#f5f38e" style="fill:var(--color4, #f5f38e)" d="M20 6v8h2V6h2V4H8v2h12z"/><path fill="#231e2b" style="fill:var(--color3, #231e2b)" d="M8 4H4v2h4V4z"/><path fill="#f7feff" style="fill:var(--color2, #f7feff)" d="M4 4H2v2h2V4zM28 2h-4v2h4V2z"/><path fill="#231e2b" style="fill:var(--color3, #231e2b)" d="M24 2H8v2h16V2z"/><path fill="#f7feff" style="fill:var(--color2, #f7feff)" d="M8 2H4v2h4V2zM24 0H8v2h16V0z"/></symbol><symbol id="icon-develop" viewBox="0 0 32 32"><path fill="#f7feff" style="fill:var(--color2, #f7feff)" d="M21.943 29.713h-3.962v1.981h3.962v-1.981zM14.019 29.713h-3.962v1.981h3.962v-1.981zM17.981 27.733h-3.962v1.981h3.962v-1.981z"/><path fill="#231e2b" style="fill:var(--color3, #231e2b)" d="M12.038 27.734V19.81h-1.981v9.905h3.962v-1.981h-1.981zM21.943 19.81h-1.981v7.924h-1.981v1.981h3.962V19.81z"/><path fill="#cf6b55" style="fill:var(--color8, #cf6b55)" d="M19.962 25.752h-1.981v1.981h1.981v-1.981z"/><path fill="#231e2b" style="fill:var(--color3, #231e2b)" d="M17.981 25.752h-3.962v1.981h3.962v-1.981z"/><path fill="#cf6b55" style="fill:var(--color8, #cf6b55)" d="M14.019 25.752h-1.981v1.981h1.981v-1.981z"/><path fill="#f7feff" style="fill:var(--color2, #f7feff)" d="M10.057 19.81H8.076v9.905h1.981V19.81z"/><path fill="#cf6b55" style="fill:var(--color8, #cf6b55)" d="M17.981 23.771h-3.962v1.981h3.962v-1.981z"/><path fill="#b0392e" style="fill:var(--color9, #b0392e)" d="M12.038 21.791v3.962h1.981v-1.981h3.962v1.981h1.981v-3.962h-7.924z"/><path fill="#f7feff" style="fill:var(--color2, #f7feff)" d="M23.924 19.81h-1.981v9.905h1.981V19.81z"/><path fill="#892727" style="fill:var(--color10, #892727)" d="M19.962 19.81h-7.924v1.981h7.924V19.81z"/><path fill="#f7feff" style="fill:var(--color2, #f7feff)" d="M25.905 17.828h-1.981v1.981h1.981v-1.981z"/><path fill="#231e2b" style="fill:var(--color3, #231e2b)" d="M23.924 17.828h-1.981v1.981h1.981v-1.981z"/><path fill="#cf8934" style="fill:var(--color7, #cf8934)" d="M21.943 17.828H10.057v1.981h11.886v-1.981z"/><path fill="#231e2b" style="fill:var(--color3, #231e2b)" d="M10.057 17.828H8.076v1.981h1.981v-1.981z"/><path fill="#f7feff" style="fill:var(--color2, #f7feff)" d="M8.076 17.828H6.095v1.981h1.981v-1.981z"/><path fill="#cf8934" style="fill:var(--color7, #cf8934)" d="M23.924 15.847h-1.981v1.981h1.981v-1.981zM10.057 15.847H8.076v1.981h1.981v-1.981z"/><path fill="#231e2b" style="fill:var(--color3, #231e2b)" d="M8.076 5.944H6.095V17.83h1.981V5.944z"/><path fill="#c2751d" style="fill:var(--color6, #c2751d)" d="M17.981 13.867V7.924h-3.962v1.981h-1.981v1.981h1.981v1.981h-1.981v1.981h7.924v-1.981h-1.981z"/><path fill="#f7feff" style="fill:var(--color2, #f7feff)" d="M6.095 5.944H4.114V17.83h1.981V5.944zM27.885 5.944h-1.981V17.83h1.981V5.944z"/><path fill="#231e2b" style="fill:var(--color3, #231e2b)" d="M25.905 5.944h-1.981V17.83h1.981V5.944z"/><path fill="#f5f38e" style="fill:var(--color4, #f5f38e)" d="M23.924 5.944h-1.981v1.981h1.981V5.944z"/><path fill="#e2b436" style="fill:var(--color5, #e2b436)" d="M10.057 5.944v1.981H8.076v7.924h1.981v1.981h11.886v-1.981h1.981V7.925h-1.981V5.944H10.057zm1.981 9.904v-1.981h1.981v-1.981h-1.981V9.905h1.981V7.924h3.962v5.943h1.981v1.981h-7.924z"/><path fill="#f5f38e" style="fill:var(--color4, #f5f38e)" d="M10.057 5.944H8.076v1.981h1.981V5.944z"/><path fill="#f7feff" style="fill:var(--color2, #f7feff)" d="M25.905 3.962h-1.981v1.981h1.981V3.962z"/><path fill="#231e2b" style="fill:var(--color3, #231e2b)" d="M23.924 3.962h-1.981v1.981h1.981V3.962z"/><path fill="#f5f38e" style="fill:var(--color4, #f5f38e)" d="M21.943 3.962H10.057v1.981h11.886V3.962z"/><path fill="#231e2b" style="fill:var(--color3, #231e2b)" d="M10.057 3.962H8.076v1.981h1.981V3.962z"/><path fill="#f7feff" style="fill:var(--color2, #f7feff)" d="M8.076 3.962H6.095v1.981h1.981V3.962zM23.924 1.98h-1.981v1.981h1.981V1.98z"/><path fill="#231e2b" style="fill:var(--color3, #231e2b)" d="M21.943 1.98H10.057v1.981h11.886V1.98z"/><path fill="#f7feff" style="fill:var(--color2, #f7feff)" d="M10.057 1.98H8.076v1.981h1.981V1.98zM21.943 0H10.057v1.981h11.886V0z"/></symbol><symbol id="icon-dribble" viewBox="0 0 32 32"><path fill="#c4b6b6" style="fill:var(--color1, #c4b6b6)" d="M3.194 14.046c3.95.328 7.732-.465 10.863-2.255a35.88 35.88 0 0 0-5.499-6.394 12.948 12.948 0 0 0-5.364 8.65zM7.915 2.191v-.002A15.934 15.934 0 0 1 16-.001c8.837 0 16 7.163 16 16s-7.163 16-16 16-16-7.163-16-16A15.992 15.992 0 0 1 7.915 2.19zm3.483 1.696a39.178 39.178 0 0 1 5.147 6.144 15.524 15.524 0 0 0 4.297-6.05 12.896 12.896 0 0 0-4.843-.934 12.908 12.908 0 0 0-4.6.841l-.002-.002zM23.529 5.46a18.438 18.438 0 0 1-5.353 7.188c.53.928 1.023 1.877 1.475 2.845 2.869-1.117 5.973-1.632 9.166-1.368a12.948 12.948 0 0 0-5.286-8.663l-.002-.002zm5.369 11.73c-2.776-.283-5.516.137-8.064 1.114a35.425 35.425 0 0 1 2.077 8.651 12.944 12.944 0 0 0 5.986-9.765h.002zm-8.924 11.139a31.955 31.955 0 0 0-1.903-8.709c-3.227 1.855-5.998 4.626-7.922 7.938A12.887 12.887 0 0 0 16 28.952c1.387 0 2.723-.218 3.976-.622l-.002-.002zM7.608 25.867c2.231-3.77 5.47-6.967 9.283-9.08a36.762 36.762 0 0 0-1.234-2.403c-3.678 2.121-8.076 3.054-12.565 2.711a12.924 12.924 0 0 0 4.517 8.773z"/></symbol><symbol id="icon-facebook" viewBox="0 0 32 32"><path fill="#c4b6b6" style="fill:var(--color1, #c4b6b6)" d="M.762 6.858A6.094 6.094 0 0 1 6.857.763h18.286a6.094 6.094 0 0 1 6.095 6.095v18.286a6.094 6.094 0 0 1-6.095 6.095H6.857a6.094 6.094 0 0 1-6.095-6.095V6.858zM6.858 3.81A3.047 3.047 0 0 0 3.81 6.858v18.286a3.047 3.047 0 0 0 3.048 3.048h9.143V17.525h-1.524a1.52 1.52 0 0 1-1.524-1.524 1.523 1.523 0 0 1 1.524-1.524h1.524v-2.286a5.332 5.332 0 0 1 5.333-5.333h.914a1.52 1.52 0 0 1 1.524 1.524 1.527 1.527 0 0 1-1.524 1.524h-.914a2.288 2.288 0 0 0-2.286 2.286v2.286h3.2a1.52 1.52 0 0 1 1.524 1.523 1.523 1.523 0 0 1-1.524 1.524h-3.2v10.667h6.095a3.047 3.047 0 0 0 3.048-3.048V6.858a3.047 3.047 0 0 0-3.048-3.048H6.857z"/></symbol><symbol id="icon-flag" viewBox="0 0 32 32"><path fill="#f7feff" style="fill:var(--color2, #f7feff)" d="M10.074 30H4.148v2h5.926v-2z"/><path fill="#231e2b" style="fill:var(--color3, #231e2b)" d="M10.074 18H8.099v10H6.124V6h3.951V4H4.149v26h5.926V18z"/><path fill="#f7feff" style="fill:var(--color2, #f7feff)" d="M4.148 4H2.173v26h1.975V4zM19.951 22H16v2h3.951v-2zM21.926 20h-1.975v2h1.975v-2z"/><path fill="#231e2b" style="fill:var(--color3, #231e2b)" d="M19.951 20H16v2h3.951v-2z"/><path fill="#f7feff" style="fill:var(--color2, #f7feff)" d="M16 20h-1.975v2H16v-2z"/><path fill="#e2b436" style="fill:var(--color5, #e2b436)" d="M8.099 20H6.124v8h1.975v-8z"/><path fill="#f7feff" style="fill:var(--color2, #f7feff)" d="M27.852 18h-5.926v2h5.926v-2z"/><path fill="#231e2b" style="fill:var(--color3, #231e2b)" d="M21.926 18h-1.975v2h1.975v-2z"/><path fill="#892727" style="fill:var(--color10, #892727)" d="M19.951 18H16v2h3.951v-2z"/><path fill="#231e2b" style="fill:var(--color3, #231e2b)" d="M16 18h-1.975v2H16v-2z"/><path fill="#f7feff" style="fill:var(--color2, #f7feff)" d="M10.074 18v12h1.975V20h1.975v-2h-3.951z"/><path fill="#cf8934" style="fill:var(--color7, #cf8934)" d="M8.099 18H6.124v2h1.975v-2z"/><path fill="#892727" style="fill:var(--color10, #892727)" d="M21.926 16h-1.975v2h1.975v-2zM16 16h-1.975v2H16v-2z"/><path fill="#231e2b" style="fill:var(--color3, #231e2b)" d="M14.025 16h-3.951v2h3.951v-2z"/><path fill="#892727" style="fill:var(--color10, #892727)" d="M10.074 16H8.099v2h1.975v-2z"/><path fill="#f7feff" style="fill:var(--color2, #f7feff)" d="M29.827 12h-1.975v6h1.975v-6z"/><path fill="#9a2d2d" style="fill:var(--color11, #9a2d2d)" d="M21.926 14V8h-1.975v2H16V8h-1.975v6h-3.951V8H8.099v8H16v2h3.951v-2h5.926v-2h-3.951z"/><path fill="#cf6b55" style="fill:var(--color8, #cf6b55)" d="M8.099 6H6.124v12h1.975V6z"/><path fill="#231e2b" style="fill:var(--color3, #231e2b)" d="M25.877 16h-3.951v2h5.926v-6h-1.975v4z"/><path fill="#f7feff" style="fill:var(--color2, #f7feff)" d="M27.852 8h-1.975v4h1.975V8z"/><path fill="#231e2b" style="fill:var(--color3, #231e2b)" d="M25.877 8h-1.975v4h1.975V8z"/><path fill="#b0392e" style="fill:var(--color9, #b0392e)" d="M19.951 8H16v2h3.951V8zM21.926 8v6h3.951v-2h-1.975V8h1.975V6h-5.926v2h1.975z"/><path fill="#231e2b" style="fill:var(--color3, #231e2b)" d="M19.951 6H16v2h3.951V6z"/><path fill="#b0392e" style="fill:var(--color9, #b0392e)" d="M8.099 6v2h1.975v6h3.951V8H16V6H8.099z"/><path fill="#f7feff" style="fill:var(--color2, #f7feff)" d="M29.827 2h-1.975v6h1.975V2z"/><path fill="#cf6b55" style="fill:var(--color8, #cf6b55)" d="M25.877 4h-3.951v2h3.951V4z"/><path fill="#231e2b" style="fill:var(--color3, #231e2b)" d="M21.926 4h-1.975v2h1.975V4z"/><path fill="#f7feff" style="fill:var(--color2, #f7feff)" d="M19.951 4H16v2h3.951V4z"/><path fill="#231e2b" style="fill:var(--color3, #231e2b)" d="M16 4h-1.975v2H16V4z"/><path fill="#cf6b55" style="fill:var(--color8, #cf6b55)" d="M14.025 4h-3.951v2h3.951V4z"/><path fill="#231e2b" style="fill:var(--color3, #231e2b)" d="M25.877 4v4h1.975V2h-5.926v2h3.951z"/><path fill="#f7feff" style="fill:var(--color2, #f7feff)" d="M21.926 2h-1.975v2h1.975V2zM16 2h-1.975v2H16V2z"/><path fill="#231e2b" style="fill:var(--color3, #231e2b)" d="M14.025 2h-3.951v2h3.951V2z"/><path fill="#f7feff" style="fill:var(--color2, #f7feff)" d="M10.074 2H4.148v2h5.926V2zM27.852 0h-5.926v2h5.926V0zM14.025 0h-3.951v2h3.951V0z"/></symbol><symbol id="icon-hearts" viewBox="0 0 32 32"><path fill="#fff" style="fill:var(--color12, #fff)" d="M1.579 13.036H.848v.731h.731v-.731z"/><path style="fill:var(--color13, #000)" d="M1.579 12.264H.848v.771h.731v-.771zM3.04 12.264h.731v-.731H1.579v.731h1.462zM4.542 12.264h-.731v.771h.731v-.771zM5.273 13.036h-.731v.731h.731v-.731zM6.004 12.264h-.731v.771h.731v-.771zM7.506 11.534H6.004v.731h2.233v-.731h-.731zM8.968 12.264h-.731v.771h.731v-.771zM8.968 13.036v2.963h.771v-2.963h-.771zM8.968 15.999h-.731v.731h.731v-.731zM8.237 16.73h-.731v.731h.731v-.731zM7.506 17.46h-.771v.731h.771v-.731zM6.735 18.191h-.731v.731h.731v-.731zM6.004 18.962h-.731v.731h.731v-.731zM5.273 19.693h-.731v.731h.731v-.731zM4.542 18.962h-.731v.731h.731v-.731zM3.812 18.191h-.771v.771h.771v-.771zM3.04 17.46h-.731v.731h.731v-.731zM2.309 16.73h-.731v.731h.731v-.731zM1.579 15.999H.848v.731h.731v-.731zM.848 15.228v-2.192H.077v2.923h.771v-.731z"/><path fill="#ce0002" style="fill:var(--color14, #ce0002)" d="M8.237 13.036v-.771H6.004v.771h-.731v.731h-.731v-.731h-.731v-.771H2.309v.771h-.731v.731H.847V16h.731v.731h.731v.731h.731v.731h.771v.771h.731v.731h.731v-.731h.731v-.771h.731v-.731h.771v-.731h.731V16h.731v-2.963h-.731z"/><path fill="#fff" style="fill:var(--color12, #fff)" d="M2.309 12.264h-.731v.731h.731v-.731z"/><path style="fill:var(--color13, #000)" d="M20.093 13.036v-.771h-.731v-.731H17.17v.731h-.771v.771h-.731v-.771h-.771v-.731h-2.192v.731h.731v.771h-.731v.731h-.731v-.731h.731v-.771h-.731v.771h-.731v2.923h.731v.771h.731v-.771h-.731v-.731h8.12v.731h-.731v.771h.731v-.771h.771v-2.923h-.771zM19.362 16.73h-.731v.731h.731v-.731z"/><path style="fill:var(--color13, #000)" d="M18.631 17.46H17.9v.731h.731v-.731zM17.9 18.191h-.771v.731h.771v-.731zM17.129 18.922h-.731v.771h.731v-.771zM16.398 19.693h-.731v.731h.731v-.731zM15.667 18.922h-.771v.771h.771v-.771zM14.896 18.191h-.731v.731h.731v-.731zM14.165 17.46h-.731v.731h.731v-.731zM13.434 16.73h-.731v.731h.731v-.731z"/><path fill="#fff" style="fill:var(--color12, #fff)" d="M12.703 13.036h-.731v.731h.731v-.731z"/><path fill="#ce0002" style="fill:var(--color14, #ce0002)" d="M19.362 15.228h-7.39v.731h.731v.771h.731v.731h.731v.731h.731v.731h.771v.771h.731v-.771h.731v-.731h.771v-.731h.731v-.731h.731v-.771h.731v-.731h-.731z"/><path fill="#fff" style="fill:var(--color12, #fff)" d="M13.434 12.264h-.731v.731h.731v-.731z"/><path style="fill:var(--color13, #000)" d="M23.828 12.305h-.731v.731h.731v-.731z"/><path style="fill:var(--color13, #000)" d="M31.218 13.036v-.771h-.731v-.731h-2.192v.731h-.771v.771h-.731v-.771h-.731v-.69h-2.233v.731h.731v.731h-.731v.731h-.731v-.731h-.731v2.923h.731v.771h.731v.731h.731v.731h.771v.731h.731v.771h.731v.731h.731v-.731h-.731v-.771h-.731v-.731h2.192v.731h-.731v.771h.731v-.771h.771v-.731h.731v-.731h.731v-.731h.731v-.771h.771v-2.923h-.771z"/><path fill="#fff" style="fill:var(--color12, #fff)" d="M23.828 13.036h-.731v.731h.731v-.731z"/><path fill="#ce0002" style="fill:var(--color14, #ce0002)" d="M27.523 18.922h-.731v.771h.731v-.771zM26.792 18.191h-.731v.731h.731v-.731z"/><path fill="#ce0002" style="fill:var(--color14, #ce0002)" d="M27.523 18.191h-.731v.731h.731v-.731zM28.254 18.191h-.731v.731h.731v-.731z"/><path fill="#fff" style="fill:var(--color12, #fff)" d="M24.559 12.305h-.731v.731h.731v-.731z"/></symbol><symbol id="icon-linkedin" viewBox="0 0 32 32"><path fill="#c4b6b6" style="fill:var(--color1, #c4b6b6)" d="M6.858.762A6.094 6.094 0 0 0 .763 6.857v18.286a6.094 6.094 0 0 0 6.095 6.095h18.286a6.094 6.094 0 0 0 6.095-6.095V6.857A6.094 6.094 0 0 0 25.144.762H6.858zM3.81 6.858A3.047 3.047 0 0 1 6.858 3.81h18.286a3.047 3.047 0 0 1 3.048 3.048v18.286a3.047 3.047 0 0 1-3.048 3.048H6.858a3.047 3.047 0 0 1-3.048-3.048V6.858zm7.619 7.619a1.52 1.52 0 0 0-1.524-1.524 1.523 1.523 0 0 0-1.524 1.524v9.143a1.52 1.52 0 0 0 1.524 1.524 1.523 1.523 0 0 0 1.524-1.524v-9.143zm.762-5.334a2.287 2.287 0 0 1-3.901 1.616 2.284 2.284 0 1 1 3.901-1.616zM16 12.953c.518 0 .975.259 1.25.652a5.35 5.35 0 0 1 2.56-.652c3.291 0 5.333 2.935 5.333 5.441v5.225a1.52 1.52 0 0 1-1.524 1.524 1.523 1.523 0 0 1-1.524-1.524v-5.227c0-1.17-1.006-2.394-2.286-2.394-.799 0-1.681.434-2.286 1.467v6.153a1.52 1.52 0 0 1-1.524 1.524 1.523 1.523 0 0 1-1.524-1.524v-9.143a1.52 1.52 0 0 1 1.524-1.524z"/></symbol><symbol id="icon-pinterest" viewBox="0 0 32 32"><path fill="#c4b6b6" style="fill:var(--color1, #c4b6b6)" d="M3.048 16a12.954 12.954 0 1 1 8.493 12.165 342.786 342.786 0 0 0 2.559-7.098c.875.625 2.004 1.029 3.425 1.029 2.949 0 6.057-1.943 6.827-5.797.971-4.838-2.904-9.441-8.351-9.441-2.29 0-4.543.92-6.228 2.38-1.688 1.464-2.915 3.573-2.915 6.001 0 1.181.357 2.496 1.205 3.362a1.54 1.54 0 0 0 2.158.001 1.523 1.523 0 0 0 .033-2.121c-1.198-1.493.381-3.956 1.515-4.939 1.178-1.021 2.734-1.637 4.232-1.637 3.698 0 5.918 3.016 5.364 5.797-.463 2.307-2.219 3.346-3.84 3.346-1.246 0-1.917-.526-2.347-1.207a41.95 41.95 0 0 0 .578-1.954c.293-1.123.469-2.478-.541-3.32-.751-.625-1.638-.488-2.181-.215-1.01.503-1.605 1.682-1.605 2.886 0 .672.105 1.714.483 2.792a260.033 260.033 0 0 1-3.106 8.744 12.947 12.947 0 0 1-5.759-10.773zM16 0C7.163 0 0 7.163 0 16s7.163 16 16 16 16-7.163 16-16S24.837 0 16 0z"/></symbol><symbol id="icon-realisation" viewBox="0 0 32 32"><path fill="#f7feff" style="fill:var(--color2, #f7feff)" d="M25.859 29.578H6.141v1.972h19.718v-1.972z"/><path fill="#231e2b" style="fill:var(--color3, #231e2b)" d="M25.859 21.69h-1.972v5.916H8.112V21.69H6.14v7.887h19.718V21.69z"/><path fill="#47414d" style="fill:var(--color15, #47414d)" d="M16 25.634h-1.972v1.972H16v-1.972z"/><path fill="#f7feff" style="fill:var(--color2, #f7feff)" d="M6.14 21.69H4.168v7.887H6.14V21.69zM21.916 25.635h-1.972v-1.972h-7.887v1.972h-1.972v-1.972H8.113v3.944h5.916v-1.972h1.972v1.972h7.887v-3.944h-1.972v1.972z"/><path fill="#47414d" style="fill:var(--color15, #47414d)" d="M21.916 23.663h-1.972v1.972h1.972v-1.972zM12.057 23.663h-1.972v1.972h1.972v-1.972z"/><path fill="#f7feff" style="fill:var(--color2, #f7feff)" d="M27.831 21.69h-1.972v7.887h1.972V21.69z"/><path fill="#cf8934" style="fill:var(--color7, #cf8934)" d="M23.888 21.69h-5.916v1.972h5.916V21.69zM14.028 21.69H8.112v1.972h5.916V21.69z"/><path fill="#892727" style="fill:var(--color10, #892727)" d="M12.056 21.69v-1.972h-1.972v-3.944H8.112v1.972H6.14v3.944h5.916z"/><path fill="#231e2b" style="fill:var(--color3, #231e2b)" d="M6.14 17.746H4.168v3.944H6.14v-3.944z"/><path fill="#f7feff" style="fill:var(--color2, #f7feff)" d="M29.803 17.746h-1.972v3.944h1.972v-3.944z"/><path fill="#231e2b" style="fill:var(--color3, #231e2b)" d="M27.831 17.746h-1.972v3.944h1.972v-3.944z"/><path fill="#f7feff" style="fill:var(--color2, #f7feff)" d="M4.169 17.746H2.197v3.944h1.972v-3.944z"/><path fill="#892727" style="fill:var(--color10, #892727)" d="M27.831 15.775h-1.972v1.972h1.972v-1.972z"/><path fill="#892727" style="fill:var(--color10, #892727)" d="M23.888 15.775h-1.972v3.944h-1.972v1.972h5.916v-3.944h-1.972v-1.972z"/><path fill="#f5f38e" style="fill:var(--color4, #f5f38e)" d="M21.916 15.775h-1.972v1.972h1.972v-1.972z"/><path fill="#e2b436" style="fill:var(--color5, #e2b436)" d="M19.944 15.776H16v-1.972h-3.944v1.972h-1.972v3.944h1.972v1.972h1.972v1.972h3.944v-1.972h1.972V19.72h1.972v-1.972h-1.972v-1.972z"/><path fill="#b0392e" style="fill:var(--color9, #b0392e)" d="M8.112 15.776h1.972v-1.972h1.972v-1.972h1.972V9.86h-1.972V7.888h-1.972V9.86H6.14v1.972H4.168v3.944H6.14v1.972h1.972v-1.972z"/><path fill="#892727" style="fill:var(--color10, #892727)" d="M6.14 15.775H4.168v1.972H6.14v-1.972z"/><path fill="#231e2b" style="fill:var(--color3, #231e2b)" d="M4.169 9.859H2.197v7.887h1.972V9.859zM29.803 9.859h-1.972v7.887h1.972V9.859z"/><path fill="#892727" style="fill:var(--color10, #892727)" d="M21.916 13.804h-1.972v1.972h1.972v-1.972z"/><path fill="#f5f38e" style="fill:var(--color4, #f5f38e)" d="M19.944 13.804H16v1.972h3.944v-1.972z"/><path fill="#892727" style="fill:var(--color10, #892727)" d="M12.057 13.804h-1.972v1.972h1.972v-1.972z"/><path fill="#f7feff" style="fill:var(--color2, #f7feff)" d="M2.197 9.859H.225v7.887h1.972V9.859z"/><path fill="#892727" style="fill:var(--color10, #892727)" d="M19.944 11.831h-1.972v1.972h1.972v-1.972zM14.029 11.831h-1.972v1.972h1.972v-1.972z"/><path fill="#f7feff" style="fill:var(--color2, #f7feff)" d="M31.775 9.859h-1.972v7.887h1.972V9.859z"/><path fill="#cf6b55" style="fill:var(--color8, #cf6b55)" d="M27.831 9.859h-1.972v1.972h1.972V9.859z"/><path fill="#b0392e" style="fill:var(--color9, #b0392e)" d="M25.86 9.86h-3.944V7.888h-1.972V9.86h-1.972v1.972h1.972v1.972h1.972v1.972h1.972v1.972h1.972v-1.972h1.972v-3.944H25.86V9.86z"/><path fill="#cf6b55" style="fill:var(--color8, #cf6b55)" d="M6.14 9.859H4.168v1.972H6.14V9.859z"/><path fill="#f7feff" style="fill:var(--color2, #f7feff)" d="M29.803 7.888h-1.972V9.86h1.972V7.888z"/><path fill="#231e2b" style="fill:var(--color3, #231e2b)" d="M27.831 7.888h-1.972V9.86h1.972V7.888z"/><path fill="#cf6b55" style="fill:var(--color8, #cf6b55)" d="M25.859 7.888h-3.944V9.86h3.944V7.888z"/><path fill="#892727" style="fill:var(--color10, #892727)" d="M19.944 7.888h-1.972V9.86h1.972V7.888z"/><path fill="#cf8934" style="fill:var(--color7, #cf8934)" d="M17.972 7.888h-3.944v5.915h3.944V7.888z"/><path fill="#892727" style="fill:var(--color10, #892727)" d="M14.029 7.888h-1.972V9.86h1.972V7.888z"/><path fill="#cf6b55" style="fill:var(--color8, #cf6b55)" d="M10.085 7.888H6.141V9.86h3.944V7.888z"/><path fill="#231e2b" style="fill:var(--color3, #231e2b)" d="M6.14 7.888H4.168V9.86H6.14V7.888z"/><path fill="#f7feff" style="fill:var(--color2, #f7feff)" d="M4.169 7.888H2.197V9.86h1.972V7.888zM27.831 5.915h-1.972v1.972h1.972V5.915z"/><path fill="#231e2b" style="fill:var(--color3, #231e2b)" d="M25.86 5.915h-5.916v1.972h5.916V5.915z"/><path fill="#f5f38e" style="fill:var(--color4, #f5f38e)" d="M19.944 5.915h-1.972v1.972h1.972V5.915z"/><path fill="#e2b436" style="fill:var(--color5, #e2b436)" d="M17.972 7.887V5.915H16V3.943h-1.972v1.972h-1.972v1.972h5.916z"/><path fill="#231e2b" style="fill:var(--color3, #231e2b)" d="M12.056 5.915H6.14v1.972h5.916V5.915z"/><path fill="#f7feff" style="fill:var(--color2, #f7feff)" d="M6.14 5.915H4.168v1.972H6.14V5.915zM25.86 3.944h-5.916v1.972h5.916V3.944z"/><path fill="#231e2b" style="fill:var(--color3, #231e2b)" d="M19.944 3.944h-1.972v1.972h1.972V3.944z"/><path fill="#f5f38e" style="fill:var(--color4, #f5f38e)" d="M17.972 3.944H16v1.972h1.972V3.944z"/><path fill="#231e2b" style="fill:var(--color3, #231e2b)" d="M14.029 3.944h-1.972v1.972h1.972V3.944z"/><path fill="#f7feff" style="fill:var(--color2, #f7feff)" d="M12.056 3.944H6.14v1.972h5.916V3.944zM19.944 1.972h-1.972v1.972h1.972V1.972z"/><path fill="#231e2b" style="fill:var(--color3, #231e2b)" d="M17.972 1.972h-3.944v1.972h3.944V1.972z"/><path fill="#f7feff" style="fill:var(--color2, #f7feff)" d="M14.029 1.972h-1.972v1.972h1.972V1.972zM17.972 0h-3.944v1.972h3.944V0z"/></symbol><symbol id="icon-snapchat" viewBox="0 0 32 32"><path fill="#c4b6b6" style="fill:var(--color1, #c4b6b6)" d="M9.009 3.781C10.748 1.715 13.211.735 16 .735c2.854 0 5.302 1.153 7.009 3.256 1.515 1.869 2.373 4.39 2.529 7.323l.165.025c.25.035.549.079.859.14 1.149.222 3.11.784 3.786 2.89.338 1.058.169 2.038-.424 2.814-.511.669-1.24 1.056-1.763 1.29-.259.118-.518.218-.736.302.509 1.377 1.395 2.794 2.375 4.077.922 1.209.678 2.741.201 3.74-.478 1-1.511 2.144-3.015 2.208-.85.037-1.743.125-2.632.287-.402.074-.875.234-1.464.477-.352.144-.674.288-1.021.443-.277.124-.568.253-.905.397-1.383.594-3.082 1.228-4.966 1.228s-3.583-.634-4.966-1.228c-.337-.144-.63-.274-.905-.397-.338-.152-.679-.3-1.021-.443-.588-.243-1.062-.405-1.464-.478a19.31 19.31 0 0 0-2.634-.285c-1.502-.065-2.536-1.208-3.013-2.208-.477-.999-.721-2.531.202-3.74.986-1.292 1.876-2.719 2.383-4.105a13.23 13.23 0 0 1-.661-.281c-.509-.238-1.201-.619-1.711-1.258-.569-.715-.821-1.638-.597-2.694.477-2.261 2.604-2.825 3.728-3.037.319-.059.63-.103.89-.14l.051-.007.177-.025c.146-3.126.998-5.684 2.548-7.524zm2.251 1.895c-1.123 1.332-1.88 3.472-1.88 6.621v.153l-.032.152c-.163.771-.756 1.131-1.05 1.27a3.644 3.644 0 0 1-.878.262c-.23.043-.486.078-.714.109l-.068.01c-.252.033-.502.072-.752.118-1.126.21-1.339.49-1.393.75-.038.187-.004.225.015.246l.006.006c.078.099.266.246.658.428.182.085.375.163.588.25l.053.021c.187.074.409.163.605.256.193.088.515.25.789.512.318.305.702.899.515 1.683-.536 2.252-1.888 4.421-3.179 6.113a.346.346 0 0 0-.024.156c0 .14.04.331.135.533.097.201.221.356.335.449.094.077.147.088.153.088.958.041 1.986.141 3.031.331.711.13 1.412.386 2.06.653.358.147.768.33 1.167.506.278.124.55.244.794.349 1.323.566 2.557.99 3.808.99s2.486-.424 3.808-.99c.244-.105.516-.227.794-.349.397-.177.809-.359 1.165-.506.647-.268 1.349-.524 2.06-.653a22.216 22.216 0 0 1 3.031-.331c.009 0 .06-.012.154-.088.142-.124.257-.277.335-.449.083-.166.129-.347.135-.533 0-.137-.034-.169-.022-.153-1.292-1.692-2.645-3.862-3.182-6.116-.199-.839.256-1.442.569-1.721.279-.247.606-.402.805-.488.199-.088.422-.172.614-.244l.071-.028c.225-.084.427-.162.616-.249.397-.178.566-.315.624-.384a.674.674 0 0 0-.031-.14c-.134-.418-.512-.7-1.545-.9-.234-.044-.471-.079-.721-.118l-.056-.007a14.822 14.822 0 0 1-.696-.112 3.473 3.473 0 0 1-.867-.274c-.309-.153-.853-.519-1.009-1.255l-.032-.152v-.154c0-2.869-.746-5.032-1.896-6.449-1.126-1.389-2.722-2.169-4.724-2.169-2.067 0-3.649.7-4.742 1.998h.001z"/></symbol><symbol id="icon-star" viewBox="0 0 32 32"><path fill="#f7feff" style="fill:var(--color2, #f7feff)" d="M26 30h-2v2h2v-2zM8 30H6v2h2v-2zM28 28h-2v2h2v-2z"/><path fill="#231e2b" style="fill:var(--color3, #231e2b)" d="M26 28h-2v2h2v-2z"/><path fill="#f7feff" style="fill:var(--color2, #f7feff)" d="M24 28h-4v2h4v-2zM12 28H8v2h4v-2z"/><path fill="#231e2b" style="fill:var(--color3, #231e2b)" d="M8 28H6v2h2v-2z"/><path fill="#f7feff" style="fill:var(--color2, #f7feff)" d="M6 28H4v2h2v-2zM30 24h-2v4h2v-4z"/><path fill="#e2b436" style="fill:var(--color5, #e2b436)" d="M26 26h-2v2h2v-2z"/><path fill="#231e2b" style="fill:var(--color3, #231e2b)" d="M24 26h-4v2h4v-2z"/><path fill="#f7feff" style="fill:var(--color2, #f7feff)" d="M20 26h-8v2h8v-2z"/><path fill="#231e2b" style="fill:var(--color3, #231e2b)" d="M12 26H8v2h4v-2z"/><path fill="#cf8934" style="fill:var(--color7, #cf8934)" d="M8 26H6v2h2v-2z"/><path fill="#231e2b" style="fill:var(--color3, #231e2b)" d="M6 24H4v4h2v-4zM28 24h-2v4h2v-4z"/><path fill="#f5f38e" style="fill:var(--color4, #f5f38e)" d="M26 24h-2v2h2v-2z"/><path fill="#e2b436" style="fill:var(--color5, #e2b436)" d="M24 24h-2v2h2v-2z"/><path fill="#cf8934" style="fill:var(--color7, #cf8934)" d="M22 24h-2v2h2v-2z"/><path fill="#231e2b" style="fill:var(--color3, #231e2b)" d="M20 24h-8v2h8v-2z"/><path fill="#cf8934" style="fill:var(--color7, #cf8934)" d="M12 24h-2v2h2v-2z"/><path fill="#e2b436" style="fill:var(--color5, #e2b436)" d="M10 24H8v2h2v-2z"/><path fill="#f5f38e" style="fill:var(--color4, #f5f38e)" d="M8 24H6v2h2v-2z"/><path fill="#f7feff" style="fill:var(--color2, #f7feff)" d="M4 24H2v4h2v-4z"/><path fill="#cf8934" style="fill:var(--color7, #cf8934)" d="M18 22h-6v2h6v-2z"/><path fill="#231e2b" style="fill:var(--color3, #231e2b)" d="M8 16H6v8h2v-8z"/><path fill="#f7feff" style="fill:var(--color2, #f7feff)" d="M6 16H4v8h2v-8z"/><path fill="#f5f38e" style="fill:var(--color4, #f5f38e)" d="M24 20h-2v4h2v-4zM10 20H8v4h2v-4z"/><path fill="#cf8934" style="fill:var(--color7, #cf8934)" d="M12 20v-2h-2v-2H8v4h4z"/><path fill="#f7feff" style="fill:var(--color2, #f7feff)" d="M28 16h-2v8h2v-8z"/><path fill="#231e2b" style="fill:var(--color3, #231e2b)" d="M26 16h-2v8h2v-8z"/><path fill="#cf8934" style="fill:var(--color7, #cf8934)" d="M22 18h-2v2h4v-4h-2v2z"/><path fill="#f7feff" style="fill:var(--color2, #f7feff)" d="M30 14h-2v2h2v-2z"/><path fill="#231e2b" style="fill:var(--color3, #231e2b)" d="M28 14h-2v2h2v-2z"/><path fill="#cf8934" style="fill:var(--color7, #cf8934)" d="M26 14h-2v2h2v-2z"/><path fill="#e2b436" style="fill:var(--color5, #e2b436)" d="M8 14v2h2v2h2v2h-2v4h2v-2h6v2h4v-4h-2v-2h2v-2h2v-2h-2v-2h-2v-2h-2V8h-4v2h-2v2h-2v2H8z"/><path fill="#cf8934" style="fill:var(--color7, #cf8934)" d="M8 14H6v2h2v-2z"/><path fill="#231e2b" style="fill:var(--color3, #231e2b)" d="M6 14H4v2h2v-2z"/><path fill="#f7feff" style="fill:var(--color2, #f7feff)" d="M4 14H2v2h2v-2zM32 12h-2v2h2v-2z"/><path fill="#231e2b" style="fill:var(--color3, #231e2b)" d="M30 12h-2v2h2v-2z"/><path fill="#f5f38e" style="fill:var(--color4, #f5f38e)" d="M28 12h-6v2h6v-2zM10 12H4v2h6v-2z"/><path fill="#231e2b" style="fill:var(--color3, #231e2b)" d="M4 12H2v2h2v-2z"/><path fill="#f7feff" style="fill:var(--color2, #f7feff)" d="M2 12H0v2h2v-2zM30 10h-2v2h2v-2z"/><path fill="#231e2b" style="fill:var(--color3, #231e2b)" d="M28 10h-6v2h6v-2z"/><path fill="#f5f38e" style="fill:var(--color4, #f5f38e)" d="M22 10h-2v2h2v-2z"/><path fill="#cf8934" style="fill:var(--color7, #cf8934)" d="M12 10h-2v2h2v-2z"/><path fill="#231e2b" style="fill:var(--color3, #231e2b)" d="M10 10H4v2h6v-2z"/><path fill="#f7feff" style="fill:var(--color2, #f7feff)" d="M4 10H2v2h2v-2zM28 8h-6v2h6V8z"/><path fill="#231e2b" style="fill:var(--color3, #231e2b)" d="M22 8h-2v2h2V8z"/><path fill="#f5f38e" style="fill:var(--color4, #f5f38e)" d="M20 8h-2v2h2V8z"/><path fill="#cf8934" style="fill:var(--color7, #cf8934)" d="M14 8h-2v2h2V8z"/><path fill="#231e2b" style="fill:var(--color3, #231e2b)" d="M12 8h-2v2h2V8z"/><path fill="#f7feff" style="fill:var(--color2, #f7feff)" d="M10 8H4v2h6V8zM22 4h-2v4h2V4z"/><path fill="#f5f38e" style="fill:var(--color4, #f5f38e)" d="M18 8V4h-2v2h-2v2h4z"/><path fill="#231e2b" style="fill:var(--color3, #231e2b)" d="M14 6h-2v2h2V6z"/><path fill="#f7feff" style="fill:var(--color2, #f7feff)" d="M12 6h-2v2h2V6z"/><path fill="#231e2b" style="fill:var(--color3, #231e2b)" d="M20 4h-2v4h2V4zM16 4h-2v2h2V4z"/><path fill="#f7feff" style="fill:var(--color2, #f7feff)" d="M14 4h-2v2h2V4zM20 2h-2v2h2V2z"/><path fill="#231e2b" style="fill:var(--color3, #231e2b)" d="M18 2h-2v2h2V2z"/><path fill="#f7feff" style="fill:var(--color2, #f7feff)" d="M16 2h-2v2h2V2zM18 0h-2v2h2V0z"/></symbol><symbol id="icon-users" viewBox="0 0 32 32"><path fill="#f7feff" style="fill:var(--color2, #f7feff)" d="M30 30H2v2h28v-2z"/><path fill="#231e2b" style="fill:var(--color3, #231e2b)" d="M30 24h-2v4H4v-4H2v6h28v-6z"/><path fill="#f7feff" style="fill:var(--color2, #f7feff)" d="M2 24H0v6h2v-6zM32 24h-2v6h2v-6zM30 22h-2v2h2v-2z"/><path fill="#231e2b" style="fill:var(--color3, #231e2b)" d="M28 22h-2v2h2v-2z"/><path fill="#b6b7b8" style="fill:var(--color16, #b6b7b8)" d="M26 22h-4v2h-2v-2h-4v2h-2v-2h-2v2h-2v-2H6v2H4v4h24v-4h-2v-2z"/><path fill="#998b8c" style="fill:var(--color17, #998b8c)" d="M22 22h-2v2h2v-2zM16 22h-2v2h2v-2zM12 22h-2v2h2v-2z"/><path fill="#231e2b" style="fill:var(--color3, #231e2b)" d="M6 22H4v2h2v-2z"/><path fill="#f7feff" style="fill:var(--color2, #f7feff)" d="M4 22H2v2h2v-2zM28 20h-2v2h2v-2z"/><path fill="#231e2b" style="fill:var(--color3, #231e2b)" d="M26 20h-2v2h2v-2z"/><path fill="#998b8c" style="fill:var(--color17, #998b8c)" d="M24 20h-2v2h2v-2zM20 20h-4v2h4v-2zM14 20h-2v2h2v-2z"/><path fill="#f7feff" style="fill:var(--color2, #f7feff)" d="M12 22v-2h2v2h2v-2h4v2h2v-4h-2v-2h-2v-2h-4v2h-2v2h-2v4h2z"/><path fill="#998b8c" style="fill:var(--color17, #998b8c)" d="M10 20H8v2h2v-2z"/><path fill="#231e2b" style="fill:var(--color3, #231e2b)" d="M8 20H6v2h2v-2z"/><path fill="#f7feff" style="fill:var(--color2, #f7feff)" d="M6 20H4v2h2v-2zM26 18h-2v2h2v-2z"/><path fill="#231e2b" style="fill:var(--color3, #231e2b)" d="M24 18h-2v2h2v-2zM10 18H8v2h2v-2z"/><path fill="#f7feff" style="fill:var(--color2, #f7feff)" d="M8 18H6v2h2v-2zM24 16h-2v2h2v-2z"/><path fill="#231e2b" style="fill:var(--color3, #231e2b)" d="M22 16h-2v2h2v-2zM12 16h-2v2h2v-2z"/><path fill="#f7feff" style="fill:var(--color2, #f7feff)" d="M10 16H8v2h2v-2zM22 14h-2v2h2v-2z"/><path fill="#231e2b" style="fill:var(--color3, #231e2b)" d="M20 14h-2v2h2v-2z"/><path fill="#f7feff" style="fill:var(--color2, #f7feff)" d="M12 2h-2v14h2V2z"/><path fill="#cf8934" style="fill:var(--color7, #cf8934)" d="M16 12h-2v2h2v-2z"/><path fill="#f7feff" style="fill:var(--color2, #f7feff)" d="M18 10v4h2v-2h2v-2h-4z"/><path fill="#e2b436" style="fill:var(--color5, #e2b436)" d="M16 8h-2v4h2V8z"/><path fill="#b0392e" style="fill:var(--color9, #b0392e)" d="M20 4h-4v4h4V4z"/><path fill="#892727" style="fill:var(--color10, #892727)" d="M16 4h-2v4h2V4z"/><path fill="#f7feff" style="fill:var(--color2, #f7feff)" d="M24 2h-2v8h2V2z"/><path fill="#231e2b" style="fill:var(--color3, #231e2b)" d="M12 16h2V4h6v4h-4v6h2v-4h4V2H12v14z"/><path fill="#f7feff" style="fill:var(--color2, #f7feff)" d="M22 0H12v2h10V0z"/></symbol><symbol id="icon-pacman" viewBox="0 0 32 32"><path d="M30.148 5.588A15.964 15.964 0 0 0 18 0C9.163 0 2 7.163 2 16s7.163 16 16 16c4.86 0 9.213-2.167 12.148-5.588L20 16 30.148 5.588zM22 3.769a2.231 2.231 0 1 1 0 4.462 2.231 2.231 0 0 1 0-4.462z"/></symbol><symbol id="icon-down" viewBox="0 0 13 32">
<path d="M5.834 31.766c0.312 0.312 0.819 0.312 1.131 0l5.091-5.091c0.312-0.312 0.312-0.819 0-1.131s-0.819-0.312-1.131 0l-4.526 4.526-4.526-4.526c-0.312-0.312-0.819-0.312-1.131 0s-0.312 0.819 0 1.131l5.091 5.091zM5.6 0v31.2h1.6v-31.2h-1.6z"></path>
</symbol>
<symbol id="icon-left" viewBox="0 0 190 32">
<path d="M0.586 14.586c-0.781 0.781-0.781 2.047 0 2.828l12.728 12.728c0.781 0.781 2.047 0.781 2.828 0s0.781-2.047 0-2.829l-11.314-11.314 11.314-11.314c0.781-0.781 0.781-2.047 0-2.828s-2.047-0.781-2.828 0l-12.728 12.728zM190 14l-188-0v4l188 0v-4z"></path>
</symbol>
<symbol id="icon-right" viewBox="0 0 186 32">
<path d="M183.59 16.94c0.781-0.781 0.781-2.047 0-2.828l-12.728-12.728c-0.781-0.781-2.047-0.781-2.828 0s-0.781 2.047 0 2.828l11.314 11.314-11.314 11.314c-0.781 0.781-0.781 2.047 0 2.829s2.047 0.781 2.828 0l12.728-12.728zM0.176 17.525h182v-4h-182v4z"></path>
</symbol><symbol id="icon-guy" viewBox="0 0 32 32">
<path fill="#f6f9f9" style="fill: var(--color1, #f6f9f9)" d="M21.23 10c0-3.275-1.785-6-5.925-6-3.255 0-6.345 2.345-6.71 5.575-0.012 0.153-0.019 0.331-0.019 0.51 0 1.245 0.332 2.412 0.912 3.418l-0.018-0.033 3.325 1.26z"></path>
<path fill="#d57080" style="fill: var(--color2, #d57080)" d="M10.765 15.555c-0.088 0.021-0.19 0.033-0.294 0.035h-0.001c-0.024 0.002-0.052 0.002-0.080 0.002-0.701 0-1.27-0.569-1.27-1.27s0.569-1.27 1.27-1.27c0.028 0 0.056 0.001 0.083 0.003l-0.004-0c0.098 0 0.192 0.011 0.284 0.032l-0.009-0.002s1.36-0.085 1.255-0.085 0.075 0.79 0.055 0.875-1.29 1.68-1.29 1.68z"></path>
<path fill="#e7aa90" style="fill: var(--color3, #e7aa90)" d="M15.905 9.91c-1.955 0-3.74 1.315-4.435 1.535-0.514 0.806-0.82 1.789-0.82 2.843 0 1.473 0.596 2.806 1.56 3.772l-0-0-4.055-1.090-1.35 1.41 0.305 2.5 4 1.075v4.73c0.008 0.728 0.601 1.315 1.33 1.315 0.007 0 0.014-0 0.021-0h7.124c0.002 0 0.003 0 0.005 0 0.735 0 1.33-0.595 1.33-1.33 0-0.002 0-0.004 0-0.005v0-4.73l4-1.075 0.225-2.245-1.265-1.645-4.070 1.090c0.968-0.962 1.567-2.294 1.567-3.767 0-1.009-0.282-1.953-0.771-2.757l0.013 0.023c-0.12-0.060-2.295-1.65-4.715-1.65z"></path>
<path fill="#e29375" style="fill: var(--color4, #e29375)" d="M15.905 9.91c-0.266 0.001-0.525 0.025-0.778 0.069l0.028-0.004c1.39 0.212 2.642 0.593 3.809 1.126l-0.089-0.036c0.527 0.93 0.861 2.033 0.919 3.208l0.001 0.017c-0.008 1.473-0.608 2.805-1.575 3.77l-0 0h1.6c0.176-0.171 0.34-0.352 0.491-0.543l0.009-0.012c0.686-0.883 1.1-2.006 1.1-3.227 0-1.012-0.284-1.957-0.778-2.761l0.013 0.023c-0.155-0.040-2.33-1.63-4.75-1.63zM25 20.395c-0.079 0.037-0.172 0.071-0.268 0.097l-0.012 0.003-5.4 1.44v4.73c0 0.002 0 0.003 0 0.005 0 0.731-0.59 1.324-1.319 1.33h1.594c0.002 0 0.003 0 0.005 0 0.735 0 1.33-0.595 1.33-1.33 0-0.002 0-0.004 0-0.005v0-4.73l4-1.075z"></path>
<path fill="#f6f9f9" style="fill: var(--color1, #f6f9f9)" d="M7.11 20.86l1.040-3.89-1.365-0.365c-0.156-0.043-0.335-0.068-0.52-0.068-1.113 0-2.016 0.902-2.016 2.016 0 0.928 0.628 1.71 1.482 1.944l0.014 0.003z"></path>
<path fill="#f6f9f9" style="fill: var(--color1, #f6f9f9)" d="M23.89 16.97l1.040 3.89 1.37-0.36c0.866-0.238 1.491-1.019 1.491-1.945 0-1.112-0.902-2.014-2.014-2.014-0.186 0-0.366 0.025-0.537 0.072l0.014-0.003z"></path>
<path fill="#cb5769" style="fill: var(--color5, #cb5769)" d="M16.88 20.91l1.865 0.84c0.053 0.024 0.115 0.038 0.18 0.038 0.245 0 0.444-0.198 0.445-0.443v-1.9c0-0 0-0 0-0 0-0.243-0.197-0.44-0.44-0.44-0.007 0-0.014 0-0.021 0l0.001-0c-0.001 0-0.002 0-0.003 0-0.059 0-0.114 0.013-0.164 0.036l0.002-0.001-1.865 0.84h-1.72l-1.86-0.84c-0.049-0.022-0.106-0.035-0.167-0.035-0.001 0-0.002 0-0.003 0h0c-0.004-0-0.010-0-0.015-0-0.243 0-0.44 0.197-0.44 0.44 0 0 0 0 0 0v0 1.9c0.001 0.245 0.2 0.443 0.445 0.443 0.065 0 0.127-0.014 0.183-0.039l-0.003 0.001 1.86-0.84z"></path>
<path fill="#d57080" style="fill: var(--color2, #d57080)" d="M16 19.2c0.002 0 0.003 0 0.005 0 0.472 0 0.855 0.383 0.855 0.855 0 0.002 0 0.004-0 0.005v-0 0.85c0 0.475-0.385 0.86-0.86 0.86s-0.86-0.385-0.86-0.86v0-0.85c0-0.475 0.385-0.86 0.86-0.86v0z"></path>
<path fill="#e7ecf1" style="fill: var(--color6, #e7ecf1)" d="M21.23 10c0-3.275-1.785-6-5.93-6-0.294 0.001-0.582 0.021-0.864 0.059l0.034-0.004c3.465 0.385 5 2.93 5 5.92z"></path>
<path fill="#d57080" style="fill: var(--color2, #d57080)" d="M15.905 9.060c-1.916 0.032-3.742 0.374-5.445 0.977l0.12-0.037c-0.351 0.106-0.602 0.427-0.602 0.806 0 0.464 0.376 0.84 0.84 0.84 0.122 0 0.238-0.026 0.342-0.073l-0.005 0.002c1.413-0.491 3.042-0.787 4.737-0.815l0.013-0c1.708 0.028 3.337 0.324 4.861 0.848l-0.111-0.033c0.071 0.022 0.153 0.034 0.238 0.034 0.464 0 0.84-0.376 0.84-0.84 0-0.342-0.204-0.636-0.498-0.767l-0.005-0.002c-1.583-0.566-3.409-0.908-5.31-0.94l-0.015-0z"></path>
<path fill="#e7ecf1" style="fill: var(--color6, #e7ecf1)" d="M25.76 16.535c-0.179 0.002-0.351 0.028-0.514 0.073l0.014-0.003-0.305 0.085c0.747 0.301 1.265 1.020 1.265 1.86 0 0.887-0.577 1.639-1.376 1.901l-0.014 0.004 0.105 0.405 1.365-0.36c0.943-0.173 1.649-0.988 1.649-1.969 0-1.105-0.895-2-2-2-0.067 0-0.132 0.003-0.197 0.010l0.008-0.001z"></path>
<path fill="#cb5769" style="fill: var(--color5, #cb5769)" d="M20.305 9.685c0.116 0.168 0.185 0.377 0.185 0.602 0 0.453-0.281 0.839-0.678 0.996l-0.007 0.003c0.545 0.145 0.875 0.265 0.875 0.265 0.034 0.005 0.073 0.008 0.114 0.008 0.464 0 0.84-0.376 0.84-0.84 0-0.303-0.16-0.568-0.4-0.716l-0.004-0.002s-0.345-0.155-0.925-0.315z"></path>
<path fill="#000" style="fill: var(--color7, #000)" d="M16 22.675c-0.017-0.002-0.036-0.003-0.056-0.003-0.348 0-0.63 0.282-0.63 0.63s0.282 0.63 0.63 0.63c0.020 0 0.039-0.001 0.059-0.003l-0.002 0c0.345 0 0.625-0.28 0.625-0.625v0 0c0 0 0 0 0-0 0-0.346-0.279-0.627-0.625-0.63h-0z"></path>
<path fill="#000" style="fill: var(--color7, #000)" d="M13.885 16.765c-0.058 0.080-0.092 0.181-0.092 0.29 0 0.166 0.081 0.314 0.206 0.404l0.001 0.001c0.543 0.34 1.202 0.541 1.908 0.541 0.032 0 0.064-0 0.097-0.001l-0.005 0c0.008 0 0.018 0 0.028 0 0.719 0 1.391-0.207 1.957-0.564l-0.015 0.009c0.112-0.092 0.183-0.231 0.183-0.387 0-0.276-0.224-0.5-0.5-0.5-0.095 0-0.185 0.027-0.26 0.073l0.002-0.001c-0.401 0.234-0.883 0.372-1.398 0.372s-0.996-0.138-1.411-0.379l0.013 0.007c-0.081-0.060-0.183-0.095-0.294-0.095-0.176 0-0.331 0.091-0.42 0.229l-0.001 0.002z"></path>
<path fill="#000" style="fill: var(--color7, #000)" d="M18.85 18.5c-0.129 0.002-0.251 0.032-0.361 0.082l0.006-0.002-1.445 0.65c-0.249-0.324-0.637-0.53-1.072-0.53s-0.823 0.206-1.070 0.527l-0.002 0.003-1.445-0.65c-0.104-0.049-0.226-0.078-0.354-0.080h-0.001c-0.008-0-0.017-0-0.026-0-0.256 0-0.488 0.101-0.659 0.266l0-0c-0.179 0.168-0.29 0.406-0.29 0.67 0 0.002 0 0.003 0 0.005v-0 1.9c0 0.001 0 0.002 0 0.003 0 0.329 0.17 0.618 0.426 0.785l0.004 0.002c0.141 0.093 0.314 0.15 0.499 0.155l0.001 0c0.14-0.001 0.272-0.033 0.391-0.087l-0.006 0.002 1.35-0.61c0.236 0.407 0.67 0.677 1.168 0.677s0.931-0.27 1.164-0.671l0.003-0.006 1.37 0.615c0.114 0.054 0.247 0.085 0.387 0.085 0.191 0 0.369-0.058 0.516-0.157l-0.003 0.002c0.26-0.169 0.43-0.458 0.43-0.787 0-0.001 0-0.002 0-0.003v0-1.9c0-0.003 0-0.006 0-0.009 0-0.262-0.109-0.498-0.285-0.665l-0-0c-0.172-0.167-0.407-0.27-0.666-0.27-0.010 0-0.020 0-0.031 0l0.002-0zM13.13 21.25v-1.73l1.5 0.68v0.38zM15.98 21.25c-0.002 0-0.003 0-0.005 0-0.196 0-0.355-0.159-0.355-0.355 0-0.002 0-0.004 0-0.005v0-0.85c0-0.199 0.161-0.36 0.36-0.36s0.36 0.161 0.36 0.36v0 0.85c0 0.006 0.001 0.013 0.001 0.021 0 0.192-0.15 0.349-0.34 0.359l-0.001 0zM18.825 21.25l-1.5-0.67v-0.38l1.5-0.67z"></path>
<path fill="#000" style="fill: var(--color7, #000)" d="M25.085 16.12l-4 1.075c0.487-0.831 0.775-1.83 0.775-2.896 0-0.831-0.175-1.621-0.49-2.336l0.015 0.037c0.525-0.184 0.895-0.675 0.895-1.253 0-0.445-0.219-0.839-0.556-1.079l-0.004-0.003c-0.125-3.805-2.555-6.165-6.415-6.165-3.66 0-6.805 2.645-7.205 6-0.019 0.193-0.029 0.416-0.029 0.642 0 1.23 0.313 2.386 0.863 3.395l-0.019-0.037c-0.132 0.24-0.211 0.525-0.215 0.829v0.001c-0 0.007-0 0.016-0 0.025 0 0.477 0.191 0.91 0.5 1.225l-0-0c0.305 0.302 0.722 0.492 1.183 0.5l0.002 0c0.142 0.428 0.311 0.796 0.515 1.142l-0.015-0.027-4-1.075c-0.201-0.058-0.432-0.092-0.67-0.092-1.157 0-2.131 0.786-2.416 1.854l-0.004 0.017c-0.060 0.204-0.095 0.438-0.095 0.681 0 1.157 0.785 2.13 1.852 2.415l0.017 0.004 5 1.34v4.345c0.014 1.005 0.832 1.815 1.84 1.815 0.002 0 0.004 0 0.005 0h7.125c1.013 0 1.835-0.822 1.835-1.835v0-4.345l5-1.34c1.083-0.297 1.865-1.272 1.865-2.43 0-1.389-1.126-2.515-2.515-2.515-0.231 0-0.455 0.031-0.668 0.090l0.018-0.004zM11 11.080c-0.033 0.012-0.072 0.019-0.112 0.019-0.147 0-0.272-0.092-0.322-0.221l-0.001-0.002c-0.014-0.035-0.021-0.075-0.021-0.117 0-0.145 0.094-0.268 0.224-0.313l0.002-0.001c1.532-0.54 3.3-0.862 5.139-0.885l0.011-0c1.851 0.025 3.618 0.347 5.267 0.921l-0.117-0.036c0.131 0.049 0.224 0.173 0.224 0.319 0 0.040-0.007 0.078-0.019 0.113l0.001-0.002c-0.051 0.132-0.176 0.224-0.323 0.224-0.040 0-0.079-0.007-0.114-0.019l0.002 0.001c-1.464-0.512-3.152-0.819-4.908-0.845l-0.012-0c-1.768 0.026-3.456 0.333-5.033 0.879l0.113-0.034zM9.11 9.635c0.305-2.88 3.035-5.135 6.195-5.135s5.1 1.78 5.37 4.77c-1.425-0.434-3.064-0.692-4.76-0.71l-0.010-0c-1.71 0.018-3.353 0.278-4.904 0.747l0.124-0.032c0.033-0.444 0.104-0.855 0.211-1.251l-0.011 0.046c0.011-0.040 0.018-0.085 0.018-0.133 0-0.229-0.154-0.422-0.364-0.481l-0.004-0.001c-0.040-0.011-0.085-0.018-0.133-0.018-0.229 0-0.422 0.154-0.481 0.364l-0.001 0.004c-0.153 0.557-0.247 1.2-0.26 1.862l-0 0.008c-0.347 0.241-0.571 0.638-0.571 1.087 0 0.627 0.437 1.151 1.022 1.286l0.009 0.002c-0.070 0.17-0.13 0.34-0.185 0.5-0.26 0.012-0.501 0.081-0.714 0.194l0.009-0.004c-0.375-0.764-0.595-1.664-0.595-2.614 0-0.173 0.007-0.344 0.021-0.513l-0.002 0.022zM9.94 14.865c-0.14-0.136-0.226-0.327-0.226-0.537 0-0.306 0.184-0.57 0.447-0.686l0.005-0.002c0 0.22-0.045 0.435-0.045 0.655 0.005 0.259 0.023 0.509 0.053 0.754l-0.004-0.034c-0.095-0.037-0.176-0.088-0.246-0.151l0.001 0.001zM4.76 18.155c0.172-0.652 0.757-1.125 1.452-1.125 0.143 0 0.282 0.020 0.413 0.058l-0.011-0.003 0.885 0.24-0.785 2.925-0.885-0.25c-0.651-0.173-1.122-0.757-1.122-1.452 0-0.14 0.019-0.275 0.055-0.404l-0.003 0.011zM20.76 21.455c-0.215 0.059-0.37 0.253-0.37 0.483 0 0.006 0 0.012 0 0.018l-0-0.001v4.73c-0.011 0.453-0.381 0.815-0.835 0.815-0.005 0-0.011-0-0.016-0h-7.124c-0.461 0-0.835-0.374-0.835-0.835v0-4.73c0-0.005 0-0.011 0-0.017 0-0.23-0.155-0.424-0.367-0.482l-0.004-0.001-3.53-0.935 0.785-2.925 3.575 0.955c0.040 0.012 0.086 0.018 0.133 0.018 0.207 0 0.384-0.126 0.46-0.305l0.001-0.003c0.024-0.056 0.038-0.122 0.038-0.19 0-0.139-0.056-0.264-0.148-0.355l-0-0c-0.877-0.871-1.421-2.077-1.421-3.411 0-0.889 0.242-1.722 0.663-2.437l-0.012 0.022c1.237-0.386 2.662-0.62 4.137-0.645l0.013-0c1.553 0.027 3.037 0.281 4.434 0.73l-0.109-0.030c0.39 0.679 0.62 1.493 0.62 2.36 0 1.333-0.543 2.539-1.419 3.41l-0 0c-0.089 0.090-0.144 0.214-0.144 0.351 0 0.094 0.026 0.181 0.070 0.256l-0.001-0.002c0.088 0.149 0.248 0.247 0.431 0.247 0.046 0 0.090-0.006 0.132-0.018l-0.003 0.001 3.585-0.945 0.775 2.915zM26.13 20l-0.885 0.24-0.785-2.925 0.885-0.24c0.118-0.033 0.253-0.052 0.392-0.052 0.836 0 1.514 0.678 1.514 1.514 0 0.697-0.471 1.284-1.111 1.46l-0.011 0.003z"></path>
<path fill="#000" style="fill: var(--color7, #000)" d="M16 25.45c-0.017-0.002-0.036-0.003-0.056-0.003-0.348 0-0.63 0.282-0.63 0.63s0.282 0.63 0.63 0.63c0.020 0 0.039-0.001 0.059-0.003l-0.002 0c0 0 0 0 0 0 0.345 0 0.625-0.28 0.625-0.625 0-0.002 0-0.003-0-0.005v0c0-0.345-0.28-0.625-0.625-0.625v0z"></path>
<path fill="#000" style="fill: var(--color7, #000)" d="M14.055 14.95c0.276 0 0.5-0.224 0.5-0.5v0-0.19c0-0.276-0.224-0.5-0.5-0.5s-0.5 0.224-0.5 0.5v0 0.19c0 0.276 0.224 0.5 0.5 0.5v0z"></path>
<path fill="#000" style="fill: var(--color7, #000)" d="M17.9 14.95c0.276 0 0.5-0.224 0.5-0.5v0-0.19c0-0.276-0.224-0.5-0.5-0.5s-0.5 0.224-0.5 0.5v0 0.19c0 0.276 0.224 0.5 0.5 0.5v0z"></path>
</symbol><symbol id="icon-crone" viewBox="0 0 32 32">
<path fill="#f7feff" style="fill: var(--color8, #f7feff)" d="M25.634 29.578h-19.718v1.972h19.718v-1.972z"></path>
<path fill="#231e2b" style="fill: var(--color9, #231e2b)" d="M25.634 21.69h-1.972v5.916h-15.775v-5.916h-1.972v7.887h19.718v-7.887z"></path>
<path fill="#47414d" style="fill: var(--color10, #47414d)" d="M15.775 25.634h-1.972v1.972h1.972v-1.972z"></path>
<path fill="#f7feff" style="fill: var(--color8, #f7feff)" d="M5.915 21.69h-1.972v7.887h1.972v-7.887z"></path>
<path fill="#f7feff" style="fill: var(--color8, #f7feff)" d="M21.69 25.635h-1.972v-1.972h-7.887v1.972h-1.972v-1.972h-1.972v3.944h5.916v-1.972h1.972v1.972h7.887v-3.944h-1.972v1.972z"></path>
<path fill="#47414d" style="fill: var(--color10, #47414d)" d="M21.691 23.663h-1.972v1.972h1.972v-1.972z"></path>
<path fill="#47414d" style="fill: var(--color10, #47414d)" d="M11.831 23.663h-1.972v1.972h1.972v-1.972z"></path>
<path fill="#f7feff" style="fill: var(--color8, #f7feff)" d="M27.606 21.69h-1.972v7.887h1.972v-7.887z"></path>
<path fill="#cf8934" style="fill: var(--color11, #cf8934)" d="M23.662 21.69h-5.916v1.972h5.916v-1.972z"></path>
<path fill="#cf8934" style="fill: var(--color11, #cf8934)" d="M13.803 21.69h-5.916v1.972h5.916v-1.972z"></path>
<path fill="#892727" style="fill: var(--color12, #892727)" d="M11.831 21.69v-1.972h-1.972v-3.944h-1.972v1.972h-1.972v3.944h5.916z"></path>
<path fill="#231e2b" style="fill: var(--color9, #231e2b)" d="M5.915 17.746h-1.972v3.944h1.972v-3.944z"></path>
<path fill="#f7feff" style="fill: var(--color8, #f7feff)" d="M29.578 17.746h-1.972v3.944h1.972v-3.944z"></path>
<path fill="#231e2b" style="fill: var(--color9, #231e2b)" d="M27.606 17.746h-1.972v3.944h1.972v-3.944z"></path>
<path fill="#f7feff" style="fill: var(--color8, #f7feff)" d="M3.944 17.746h-1.972v3.944h1.972v-3.944z"></path>
<path fill="#892727" style="fill: var(--color12, #892727)" d="M27.606 15.775h-1.972v1.972h1.972v-1.972z"></path>
<path fill="#892727" style="fill: var(--color12, #892727)" d="M23.662 15.775h-1.972v3.944h-1.972v1.972h5.916v-3.944h-1.972v-1.972z"></path>
<path fill="#f5f38e" style="fill: var(--color13, #f5f38e)" d="M21.691 15.775h-1.972v1.972h1.972v-1.972z"></path>
<path fill="#e2b436" style="fill: var(--color14, #e2b436)" d="M19.719 15.776h-3.944v-1.972h-3.944v1.972h-1.972v3.944h1.972v1.972h1.972v1.972h3.944v-1.972h1.972v-1.972h1.972v-1.972h-1.972v-1.972z"></path>
<path fill="#b0392e" style="fill: var(--color15, #b0392e)" d="M7.887 15.776h1.972v-1.972h1.972v-1.972h1.972v-1.972h-1.972v-1.972h-1.972v1.972h-3.944v1.972h-1.972v3.944h1.972v1.972h1.972v-1.972z"></path>
<path fill="#892727" style="fill: var(--color12, #892727)" d="M5.915 15.775h-1.972v1.972h1.972v-1.972z"></path>
<path fill="#231e2b" style="fill: var(--color9, #231e2b)" d="M3.944 9.859h-1.972v7.887h1.972v-7.887z"></path>
<path fill="#231e2b" style="fill: var(--color9, #231e2b)" d="M29.578 9.859h-1.972v7.887h1.972v-7.887z"></path>
<path fill="#892727" style="fill: var(--color12, #892727)" d="M21.691 13.804h-1.972v1.972h1.972v-1.972z"></path>
<path fill="#f5f38e" style="fill: var(--color13, #f5f38e)" d="M19.718 13.804h-3.944v1.972h3.944v-1.972z"></path>
<path fill="#892727" style="fill: var(--color12, #892727)" d="M11.831 13.804h-1.972v1.972h1.972v-1.972z"></path>
<path fill="#f7feff" style="fill: var(--color8, #f7feff)" d="M1.972 9.859h-1.972v7.887h1.972v-7.887z"></path>
<path fill="#892727" style="fill: var(--color12, #892727)" d="M19.719 11.831h-1.972v1.972h1.972v-1.972z"></path>
<path fill="#892727" style="fill: var(--color12, #892727)" d="M13.803 11.831h-1.972v1.972h1.972v-1.972z"></path>
<path fill="#f7feff" style="fill: var(--color8, #f7feff)" d="M31.549 9.859h-1.972v7.887h1.972v-7.887z"></path>
<path fill="#cf6b55" style="fill: var(--color16, #cf6b55)" d="M27.606 9.859h-1.972v1.972h1.972v-1.972z"></path>
<path fill="#b0392e" style="fill: var(--color15, #b0392e)" d="M25.634 9.86h-3.944v-1.972h-1.972v1.972h-1.972v1.972h1.972v1.972h1.972v1.972h1.972v1.972h1.972v-1.972h1.972v-3.944h-1.972v-1.972z"></path>
<path fill="#cf6b55" style="fill: var(--color16, #cf6b55)" d="M5.915 9.859h-1.972v1.972h1.972v-1.972z"></path>
<path fill="#f7feff" style="fill: var(--color8, #f7feff)" d="M29.578 7.888h-1.972v1.972h1.972v-1.972z"></path>
<path fill="#231e2b" style="fill: var(--color9, #231e2b)" d="M27.606 7.888h-1.972v1.972h1.972v-1.972z"></path>
<path fill="#cf6b55" style="fill: var(--color16, #cf6b55)" d="M25.634 7.888h-3.944v1.972h3.944v-1.972z"></path>
<path fill="#892727" style="fill: var(--color12, #892727)" d="M19.719 7.888h-1.972v1.972h1.972v-1.972z"></path>
<path fill="#cf8934" style="fill: var(--color11, #cf8934)" d="M17.747 7.888h-3.944v5.915h3.944v-5.915z"></path>
<path fill="#892727" style="fill: var(--color12, #892727)" d="M13.803 7.888h-1.972v1.972h1.972v-1.972z"></path>
<path fill="#cf6b55" style="fill: var(--color16, #cf6b55)" d="M9.859 7.888h-3.944v1.972h3.944v-1.972z"></path>
<path fill="#231e2b" style="fill: var(--color9, #231e2b)" d="M5.915 7.888h-1.972v1.972h1.972v-1.972z"></path>
<path fill="#f7feff" style="fill: var(--color8, #f7feff)" d="M3.944 7.888h-1.972v1.972h1.972v-1.972z"></path>
<path fill="#f7feff" style="fill: var(--color8, #f7feff)" d="M27.606 5.915h-1.972v1.972h1.972v-1.972z"></path>
<path fill="#231e2b" style="fill: var(--color9, #231e2b)" d="M25.634 5.915h-5.916v1.972h5.916v-1.972z"></path>
<path fill="#f5f38e" style="fill: var(--color13, #f5f38e)" d="M19.719 5.915h-1.972v1.972h1.972v-1.972z"></path>
<path fill="#e2b436" style="fill: var(--color14, #e2b436)" d="M17.747 7.887v-1.972h-1.972v-1.972h-1.972v1.972h-1.972v1.972h5.916z"></path>
<path fill="#231e2b" style="fill: var(--color9, #231e2b)" d="M11.831 5.915h-5.916v1.972h5.916v-1.972z"></path>
<path fill="#f7feff" style="fill: var(--color8, #f7feff)" d="M5.915 5.915h-1.972v1.972h1.972v-1.972z"></path>
<path fill="#f7feff" style="fill: var(--color8, #f7feff)" d="M25.634 3.944h-5.916v1.972h5.916v-1.972z"></path>
<path fill="#231e2b" style="fill: var(--color9, #231e2b)" d="M19.719 3.944h-1.972v1.972h1.972v-1.972z"></path>
<path fill="#f5f38e" style="fill: var(--color13, #f5f38e)" d="M17.746 3.944h-1.972v1.972h1.972v-1.972z"></path>
<path fill="#231e2b" style="fill: var(--color9, #231e2b)" d="M13.803 3.944h-1.972v1.972h1.972v-1.972z"></path>
<path fill="#f7feff" style="fill: var(--color8, #f7feff)" d="M11.831 3.944h-5.916v1.972h5.916v-1.972z"></path>
<path fill="#f7feff" style="fill: var(--color8, #f7feff)" d="M19.719 1.972h-1.972v1.972h1.972v-1.972z"></path>
<path fill="#231e2b" style="fill: var(--color9, #231e2b)" d="M17.747 1.972h-3.944v1.972h3.944v-1.972z"></path>
<path fill="#f7feff" style="fill: var(--color8, #f7feff)" d="M13.803 1.972h-1.972v1.972h1.972v-1.972z"></path>
<path fill="#f7feff" style="fill: var(--color8, #f7feff)" d="M17.747 0h-3.944v1.972h3.944v-1.972z"></path>
</symbol><symbol id="icon-bracket" viewBox="0 0 30 32">
<path fill="#9c9c9c" style="fill: var(--color1, #9c9c9c)" d="M10.592 32c-2.789 0-5.44-1.122-7.464-3.158-4.022-4.047-4.187-10.464-0.369-14.306l12.44-12.514c1.295-1.304 3.043-2.023 4.921-2.023 2.009 0 3.919 0.807 5.376 2.272 2.899 2.915 3.010 7.549 0.246 10.328l-12.455 12.512c-0.807 0.813-1.893 1.26-3.059 1.26-1.231 0-2.398-0.492-3.284-1.383-1.773-1.787-1.829-4.635-0.123-6.353l11.495-11.545c0.657-0.66 1.721-0.664 2.381-0.007 0.659 0.657 0.662 1.723 0.005 2.381l-11.493 11.547c-0.404 0.408-0.349 1.127 0.125 1.602 0.246 0.248 0.573 0.389 0.894 0.389 0.185 0 0.451-0.045 0.67-0.266l12.455-12.512c1.46-1.47 1.351-3.971-0.246-5.578-1.528-1.536-4.12-1.657-5.521-0.249l-12.44 12.514c-2.516 2.531-2.351 6.819 0.371 9.556 1.386 1.396 3.188 2.164 5.075 2.164 1.686 0 3.249-0.637 4.397-1.792l12.441-12.514c0.655-0.659 1.721-0.664 2.381-0.007 0.659 0.657 0.662 1.721 0.007 2.381l-12.441 12.514c-1.785 1.795-4.195 2.786-6.786 2.786z"></path>
</symbol></defs></svg>



